<svg xmlns="http://www.w3.org/2000/svg" width="19" height="20" viewBox="0 0 19 20" fill="none">
  <path d="M10.1754 4.31133C10.1499 3.83422 9.66229 3.91539 9.18652 3.91539C9.53796 4.00899 9.87043 4.13921 10.1754 4.31133Z" fill="currentColor"/>
  <path d="M5.08915 3.11719C3.2422 3.11719 2.39207 5.45495 3.86854 6.63072C4.37186 5.28675 5.37383 4.32174 6.68737 3.94085C6.32806 3.4441 5.74752 3.11719 5.08915 3.11719Z" fill="currentColor"/>
  <path d="M1.27363 6.26329C1.3489 6.50482 1.44642 6.73653 1.56227 6.95605L0.95557 7.56309C0.792642 7.72602 0.792642 7.99048 0.95557 8.15374L2.02497 9.22348C2.10285 9.30136 2.20956 9.34519 2.32078 9.34519C2.43077 9.34519 2.53677 9.30136 2.616 9.22348L3.22202 8.61644C3.31297 8.66457 3.41378 8.69407 3.50797 8.73558C3.50797 8.72867 3.5073 8.7215 3.5073 8.71459C3.5073 8.21852 3.56427 7.75055 3.66572 7.31112C2.93401 6.8402 2.44578 6.02278 2.44578 5.0895C2.44578 3.63166 3.63166 2.44544 5.08917 2.44544C6.07609 2.44544 6.9282 2.99487 7.38306 3.79758C7.86868 3.73736 8.32484 3.73736 8.87394 3.84112C8.8033 3.62745 8.7202 3.41833 8.6161 3.22232L9.2228 2.61498C9.30195 2.53677 9.34578 2.43039 9.34578 2.31981C9.34578 2.20918 9.30195 2.10285 9.2228 2.02463L8.15399 0.95557C8.07223 0.873769 7.96553 0.833184 7.85886 0.833184C7.75215 0.833184 7.64549 0.873769 7.56432 0.95557L6.95568 1.5629C6.73581 1.44642 6.50478 1.3489 6.26266 1.27527V0.417224C6.26266 0.186866 6.07677 0 5.84573 0H4.33327C4.10355 0 3.91567 0.186866 3.91567 0.417224V1.27523C3.67419 1.34886 3.44311 1.44638 3.22257 1.56286L2.616 0.956202C2.53415 0.874401 2.42749 0.833816 2.32078 0.833816C2.21411 0.833816 2.10681 0.874401 2.02564 0.955865L0.95557 2.02493C0.877688 2.10348 0.833858 2.20948 0.833858 2.32044C0.833858 2.43136 0.877688 2.5374 0.95557 2.61562L1.56227 3.22261C1.44638 3.44252 1.3489 3.67389 1.27498 3.91538H0.417603C0.186571 3.91538 0 4.10254 0 4.33323V5.84573C0 6.07575 0.186571 6.26329 0.417603 6.26329H1.27363Z" fill="currentColor"/>
  <path d="M14.3755 14.3568C15.0444 13.9899 15.5038 13.2877 15.5038 12.4728C15.5038 11.2836 14.5359 10.3164 13.3467 10.3164C12.9285 10.3164 12.541 10.4414 12.2099 10.6482C12.0116 11.4375 11.6994 12.1924 11.291 12.8482C12.4487 13.0658 13.5109 13.593 14.3755 14.3568Z" fill="currentColor"/>
  <path d="M18.8388 11.6557C18.8388 11.4067 18.6366 11.2051 18.3885 11.2051H17.4632C17.3833 10.9443 17.2773 10.6943 17.1516 10.457L17.8067 9.80196C17.8918 9.7175 17.9389 9.603 17.9389 9.48356C17.9389 9.36408 17.8918 9.24954 17.8067 9.16483L16.6535 8.01131C16.5658 7.92323 16.45 7.87906 16.3349 7.87906C16.2196 7.87906 16.1045 7.92323 16.0168 8.01131L15.3604 8.66673C15.1234 8.54106 14.8741 8.43574 14.6123 8.35617V7.43078C14.6123 7.18209 14.4113 6.98047 14.1626 6.98047H12.5311C12.4218 6.98047 12.3255 7.0243 12.2471 7.08912C12.3845 7.59042 12.4597 8.13399 12.4597 8.71385C12.4597 9.08197 12.431 9.45575 12.3773 9.82741C12.6809 9.71548 13.0042 9.64518 13.3466 9.64518C14.9055 9.64518 16.1738 10.9132 16.1738 12.4718C16.1738 13.4679 15.6536 14.341 14.8728 14.8446C15.4409 15.4677 15.8924 16.2069 16.1863 17.0351C16.2347 17.0518 16.2851 17.0639 16.3355 17.0639C16.4507 17.0639 16.5659 17.0201 16.6542 16.932L17.8081 15.7785C17.8925 15.694 17.939 15.5795 17.939 15.4601C17.939 15.3406 17.8925 15.2261 17.8081 15.1413L17.1516 14.4859C17.2773 14.249 17.3833 13.9989 17.4632 13.7379H18.3886C18.5077 13.7379 18.6235 13.6907 18.7073 13.6056C18.7918 13.5215 18.8396 13.4067 18.8396 13.2872L18.8388 11.6557Z" fill="currentColor"/>
  <path d="M15.2675 17.4446C14.5679 15.386 12.7191 13.9701 10.5848 13.7773C9.87014 14.5342 8.98529 15.0143 7.98324 15.0143C6.98194 15.0143 6.09641 14.5342 5.38241 13.7773C3.2469 13.9701 1.39801 15.386 0.698334 17.445L0.311579 18.5834C0.200952 18.911 0.253927 19.2719 0.455543 19.553C0.657117 19.8341 0.981751 20.001 1.32729 20.001H14.6386C14.9848 20.001 15.3094 19.8341 15.511 19.553C15.7119 19.2719 15.7656 18.911 15.6543 18.5834L15.2675 17.4446Z" fill="currentColor"/>
  <path d="M4.5127 8.71589C4.5127 11.2693 6.06709 14.0093 7.98333 14.0093C9.90032 14.0093 11.4546 11.2693 11.4546 8.71589C11.4547 3.42287 4.5127 3.41238 4.5127 8.71589Z" fill="currentColor"/>
</svg>