<svg width="20" height="20" viewBox="0 0 20 20" fill="none" xmlns="http://www.w3.org/2000/svg">
<g id="People">
<g id="Icon-2">
<path id="calendar" fill-rule="evenodd" clip-rule="evenodd" d="M5.90233 14.431C5.772 14.3007 5.56133 14.3007 5.431 14.431L5 14.862L4.569 14.431C4.43867 14.3007 4.228 14.3007 4.09767 14.431C3.96733 14.5613 3.96733 14.772 4.09767 14.9023L4.52867 15.3333L4.09767 15.7643C3.96733 15.8947 3.96733 16.1053 4.09767 16.2357C4.16267 16.3007 4.248 16.3333 4.33333 16.3333C4.41867 16.3333 4.504 16.3007 4.569 16.2357L5 15.8047L5.431 16.2357C5.496 16.3007 5.58133 16.3333 5.66667 16.3333C5.752 16.3333 5.83733 16.3007 5.90233 16.2357C6.03267 16.1053 6.03267 15.8947 5.90233 15.7643L5.47133 15.3333L5.90233 14.9023C6.03267 14.772 6.03267 14.5613 5.90233 14.431ZM9.23567 14.431C9.10533 14.3007 8.89467 14.3007 8.76433 14.431L8.33333 14.862L7.90233 14.431C7.772 14.3007 7.56133 14.3007 7.431 14.431C7.30067 14.5613 7.30067 14.772 7.431 14.9023L7.862 15.3333L7.431 15.7643C7.30067 15.8947 7.30067 16.1053 7.431 16.2357C7.496 16.3007 7.58133 16.3333 7.66667 16.3333C7.752 16.3333 7.83733 16.3007 7.90233 16.2357L8.33333 15.8047L8.76433 16.2357C8.82933 16.3007 8.91467 16.3333 9 16.3333C9.08533 16.3333 9.17067 16.3007 9.23567 16.2357C9.366 16.1053 9.366 15.8947 9.23567 15.7643L8.80467 15.3333L9.23567 14.9023C9.366 14.772 9.366 14.5613 9.23567 14.431ZM15.9023 11.0977C15.772 10.9673 15.5613 10.9673 15.431 11.0977L15 11.5287L14.569 11.0977C14.4387 10.9673 14.228 10.9673 14.0977 11.0977C13.9673 11.228 13.9673 11.4387 14.0977 11.569L14.5287 12L14.0977 12.431C13.9673 12.5613 13.9673 12.772 14.0977 12.9023C14.1627 12.9673 14.248 13 14.3333 13C14.4187 13 14.504 12.9673 14.569 12.9023L15 12.4713L15.431 12.9023C15.496 12.9673 15.5813 13 15.6667 13C15.752 13 15.8373 12.9673 15.9023 12.9023C16.0327 12.772 16.0327 12.5613 15.9023 12.431L15.4713 12L15.9023 11.569C16.0327 11.4387 16.0327 11.228 15.9023 11.0977ZM12.569 7.76433C12.4387 7.634 12.228 7.634 12.0977 7.76433L11.6667 8.19533L11.2357 7.76433C11.1053 7.634 10.8947 7.634 10.7643 7.76433C10.634 7.89467 10.634 8.10533 10.7643 8.23567L11.1953 8.66667L10.7643 9.09767C10.634 9.228 10.634 9.43867 10.7643 9.569C10.8293 9.634 10.9147 9.66667 11 9.66667C11.0853 9.66667 11.1707 9.634 11.2357 9.569L11.6667 9.138L12.0977 9.569C12.1627 9.634 12.248 9.66667 12.3333 9.66667C12.4187 9.66667 12.504 9.634 12.569 9.569C12.6993 9.43867 12.6993 9.228 12.569 9.09767L12.138 8.66667L12.569 8.23567C12.6993 8.10533 12.6993 7.89467 12.569 7.76433ZM14.6667 9H15.3333V8.33333H14.6667V9ZM16 9.33333C16 9.51733 15.8507 9.66667 15.6667 9.66667H14.3333C14.1493 9.66667 14 9.51733 14 9.33333V8C14 7.816 14.1493 7.66667 14.3333 7.66667H15.6667C15.8507 7.66667 16 7.816 16 8V9.33333ZM11.3333 15.6667H12V15H11.3333V15.6667ZM12.6667 14.6667V16C12.6667 16.184 12.5173 16.3333 12.3333 16.3333H11C10.816 16.3333 10.6667 16.184 10.6667 16V14.6667C10.6667 14.4827 10.816 14.3333 11 14.3333H12.3333C12.5173 14.3333 12.6667 14.4827 12.6667 14.6667ZM11.3333 12.3333H12V11.6667H11.3333V12.3333ZM12.6667 12.6667C12.6667 12.8507 12.5173 13 12.3333 13H11C10.816 13 10.6667 12.8507 10.6667 12.6667V11.3333C10.6667 11.1493 10.816 11 11 11H12.3333C12.5173 11 12.6667 11.1493 12.6667 11.3333V12.6667ZM8 12.3333H8.66667V11.6667H8V12.3333ZM9.33333 12.6667C9.33333 12.8507 9.184 13 9 13H7.66667C7.48267 13 7.33333 12.8507 7.33333 12.6667V11.3333C7.33333 11.1493 7.48267 11 7.66667 11H9C9.184 11 9.33333 11.1493 9.33333 11.3333V12.6667ZM8 9H8.66667V8.33333H8V9ZM9.33333 9.33333C9.33333 9.51733 9.184 9.66667 9 9.66667H7.66667C7.48267 9.66667 7.33333 9.51733 7.33333 9.33333V8C7.33333 7.816 7.48267 7.66667 7.66667 7.66667H9C9.184 7.66667 9.33333 7.816 9.33333 8V9.33333ZM4.66667 12.3333H5.33333V11.6667H4.66667V12.3333ZM6 12.6667C6 12.8507 5.85067 13 5.66667 13H4.33333C4.14933 13 4 12.8507 4 12.6667V11.3333C4 11.1493 4.14933 11 4.33333 11H5.66667C5.85067 11 6 11.1493 6 11.3333V12.6667ZM4.66667 9H5.33333V8.33333H4.66667V9ZM6 9.33333C6 9.51733 5.85067 9.66667 5.66667 9.66667H4.33333C4.14933 9.66667 4 9.51733 4 9.33333V8C4 7.816 4.14933 7.66667 4.33333 7.66667H5.66667C5.85067 7.66667 6 7.816 6 8V9.33333ZM14.6667 2.33333C14.6667 2.517 14.8163 2.66667 15 2.66667C15.1837 2.66667 15.3333 2.517 15.3333 2.33333V1C15.3333 0.816333 15.1837 0.666667 15 0.666667C14.8163 0.666667 14.6667 0.816333 14.6667 1V2.33333ZM14 2.33333V1C14 0.448667 14.4487 0 15 0C15.5513 0 16 0.448667 16 1V2.33333C16 2.88467 15.5513 3.33333 15 3.33333C14.4487 3.33333 14 2.88467 14 2.33333ZM11.3333 2.33333C11.3333 2.517 11.483 2.66667 11.6667 2.66667C11.8503 2.66667 12 2.517 12 2.33333V1C12 0.816333 11.8503 0.666667 11.6667 0.666667C11.483 0.666667 11.3333 0.816333 11.3333 1V2.33333ZM10.6667 2.33333V1C10.6667 0.448667 11.1153 0 11.6667 0C12.218 0 12.6667 0.448667 12.6667 1V2.33333C12.6667 2.88467 12.218 3.33333 11.6667 3.33333C11.1153 3.33333 10.6667 2.88467 10.6667 2.33333ZM8 2.33333C8 2.517 8.14967 2.66667 8.33333 2.66667C8.517 2.66667 8.66667 2.517 8.66667 2.33333V1C8.66667 0.816333 8.517 0.666667 8.33333 0.666667C8.14967 0.666667 8 0.816333 8 1V2.33333ZM7.33333 2.33333V1C7.33333 0.448667 7.782 0 8.33333 0C8.88467 0 9.33333 0.448667 9.33333 1V2.33333C9.33333 2.88467 8.88467 3.33333 8.33333 3.33333C7.782 3.33333 7.33333 2.88467 7.33333 2.33333ZM4.66667 2.33333C4.66667 2.517 4.81633 2.66667 5 2.66667C5.18367 2.66667 5.33333 2.517 5.33333 2.33333V1C5.33333 0.816333 5.18367 0.666667 5 0.666667C4.81633 0.666667 4.66667 0.816333 4.66667 1V2.33333ZM4 2.33333V1C4 0.448667 4.44867 0 5 0C5.55133 0 6 0.448667 6 1V2.33333C6 2.88467 5.55133 3.33333 5 3.33333C4.44867 3.33333 4 2.88467 4 2.33333ZM16.0977 18.0977C15.9673 18.228 15.9673 18.4387 16.0977 18.569C16.1627 18.634 16.248 18.6667 16.3333 18.6667C16.4187 18.6667 16.504 18.634 16.569 18.569L18.569 16.569C18.6317 16.5067 18.6667 16.4217 18.6667 16.3333V5.66667C18.6667 5.48267 18.5173 5.33333 18.3333 5.33333H1.66667C1.48267 5.33333 1.33333 5.48267 1.33333 5.66667V17.3333C1.33333 18.0687 1.93133 18.6667 2.66667 18.6667H15C15.184 18.6667 15.3333 18.5173 15.3333 18.3333V16.3333C15.3333 16.1823 15.482 16 15.6667 16H17C17.184 16 17.3333 15.8507 17.3333 15.6667C17.3333 15.4827 17.184 15.3333 17 15.3333H15.6667C15.134 15.3333 14.6667 15.8007 14.6667 16.3333V18H2.66667C2.299 18 2 17.701 2 17.3333V6H18V16.1953L16.0977 18.0977ZM18.3333 0.666667H17C16.816 0.666667 16.6667 0.816 16.6667 1C16.6667 1.184 16.816 1.33333 17 1.33333H18.3333C18.8193 1.33333 19.3333 1.84733 19.3333 2.33333V18.3333C19.3333 18.8193 18.8193 19.3333 18.3333 19.3333H1.66667C1.18067 19.3333 0.666667 18.8193 0.666667 18.3333V4.66667H18.3333C18.5173 4.66667 18.6667 4.51733 18.6667 4.33333C18.6667 4.14933 18.5173 4 18.3333 4H0.333333C0.149333 4 0 4.14933 0 4.33333V18.3333C0 19.19 0.81 20 1.66667 20H18.3333C19.19 20 20 19.19 20 18.3333V2.33333C20 1.47667 19.19 0.666667 18.3333 0.666667ZM0 3V2.33333C0 1.47667 0.81 0.666667 1.66667 0.666667H3C3.184 0.666667 3.33333 0.816 3.33333 1C3.33333 1.184 3.184 1.33333 3 1.33333H1.66667C1.18067 1.33333 0.666667 1.84733 0.666667 2.33333V3C0.666667 3.184 0.517333 3.33333 0.333333 3.33333C0.149333 3.33333 0 3.184 0 3Z" fill="black"/>
</g>
</g>
</svg>
