<svg xmlns="http://www.w3.org/2000/svg" width="20" height="20" viewBox="0 0 20 20" fill="none">
  <path d="M5.83333 1.66797C5.3731 1.66797 5 2.04106 5 2.5013V3.33464H4.16667C3.24619 3.33464 2.5 4.08083 2.5 5.0013V6.66797H17.5V5.0013C17.5 4.08083 16.7538 3.33464 15.8333 3.33464H15V2.5013C15 2.04106 14.6269 1.66797 14.1667 1.66797H13.3333C12.8731 1.66797 12.5 2.04106 12.5 2.5013V3.33464H7.5V2.5013C7.5 2.04106 7.1269 1.66797 6.66667 1.66797H5.83333Z" fill="black"/>
  <path fill-rule="evenodd" clip-rule="evenodd" d="M17.5 8.33464H2.5V15.8346C2.5 16.7551 3.24619 17.5013 4.16667 17.5013H15.8333C16.7538 17.5013 17.5 16.7551 17.5 15.8346V8.33464ZM5 10.8346C5 10.3744 5.3731 10.0013 5.83333 10.0013H7.5C7.96024 10.0013 8.33333 10.3744 8.33333 10.8346V11.668C8.33333 12.1282 7.96024 12.5013 7.5 12.5013H5.83333C5.3731 12.5013 5 12.1282 5 11.668V10.8346Z" fill="currentColor"/>
</svg>