<svg width="25" height="25" viewBox="0 0 25 25" fill="none" xmlns="http://www.w3.org/2000/svg">
<g id="Icons/correct">
<rect x="0.5" y="0.5" width="24" height="24" rx="12" fill="#659872"/>
<path id="Vector" d="M19.2104 7.70986C19.1175 7.61613 19.0069 7.54174 18.885 7.49097C18.7632 7.4402 18.6324 7.41406 18.5004 7.41406C18.3684 7.41406 18.2377 7.4402 18.1159 7.49097C17.994 7.54174 17.8834 7.61613 17.7904 7.70986L10.3404 15.1699L7.21044 12.0299C7.11392 11.9366 6.99998 11.8633 6.87512 11.8141C6.75026 11.7649 6.61694 11.7408 6.48276 11.7431C6.34858 11.7454 6.21617 11.7741 6.09309 11.8276C5.97001 11.8811 5.85868 11.9583 5.76544 12.0549C5.6722 12.1514 5.59889 12.2653 5.54968 12.3902C5.50048 12.515 5.47635 12.6484 5.47867 12.7825C5.48099 12.9167 5.50972 13.0491 5.56321 13.1722C5.6167 13.2953 5.69392 13.4066 5.79044 13.4999L9.63044 17.3399C9.7234 17.4336 9.834 17.508 9.95586 17.5588C10.0777 17.6095 10.2084 17.6357 10.3404 17.6357C10.4725 17.6357 10.6032 17.6095 10.725 17.5588C10.8469 17.508 10.9575 17.4336 11.0504 17.3399L19.2104 9.17986C19.3119 9.08622 19.393 8.97257 19.4484 8.84607C19.5038 8.71957 19.5324 8.58296 19.5324 8.44486C19.5324 8.30676 19.5038 8.17015 19.4484 8.04365C19.393 7.91715 19.3119 7.8035 19.2104 7.70986Z" fill="white"/>
</g>
</svg>
