<svg width="20" height="20" viewBox="0 0 20 20" fill="none" xmlns="http://www.w3.org/2000/svg">
<g clip-path="url(#clip0_1865_133551)">
<path d="M1.66699 5.0013C1.66699 3.74714 2.31699 2.43464 3.33366 1.66797C3.33366 2.37214 3.90866 3.33464 5.00033 3.33464C6.38116 3.33464 7.50033 4.4538 7.50033 5.83464C7.50033 6.1563 7.43366 6.4613 7.32366 6.74297C7.94033 7.23797 8.55366 7.73463 9.14866 8.2513L7.41699 9.98463C6.90033 9.38797 6.40533 8.77297 5.91116 8.15797C5.62783 8.26797 5.32283 8.33464 5.00033 8.33464C3.15866 8.33464 1.66699 6.84297 1.66699 5.0013ZM11.7937 10.708L12.9103 9.5913C13.4162 9.84464 13.9795 10.0013 14.5837 10.0013C16.6545 10.0013 18.3337 8.32213 18.3337 6.2513C18.3337 5.64714 18.177 5.08464 17.9228 4.5788L15.0003 7.5013L13.3337 5.83464L16.2562 2.91214C15.7503 2.65797 15.1878 2.5013 14.5837 2.5013C12.5128 2.5013 10.8337 4.18047 10.8337 6.2513C10.8337 6.85547 10.9903 7.41797 11.2445 7.9238L2.50033 16.668L4.16699 18.3346L9.87366 12.628C11.4445 14.2346 13.102 15.7555 14.8545 17.1696L16.042 18.1263L17.292 16.8763L16.3337 15.6888C14.9212 13.9363 13.4003 12.2788 11.7937 10.708Z" fill="black"/>
</g>
<defs>
<clipPath id="clip0_1865_133551">
<rect width="20" height="20" fill="white"/>
</clipPath>
</defs>
</svg>
