<svg width="20" height="20" viewBox="0 0 20 20" fill="none" xmlns="http://www.w3.org/2000/svg">
<g id="Group">
<path id="Vector" d="M14.074 5.27061H14.6059V5.80253C14.6059 5.97882 14.7488 6.12168 14.9251 6.12168C15.1014 6.12168 15.2442 5.97882 15.2442 5.80253V5.27061H15.7762C15.9525 5.27061 16.0953 5.12776 16.0953 4.95146C16.0953 4.77516 15.9525 4.63231 15.7762 4.63231H15.2442V4.1004C15.2442 3.9241 15.1014 3.78125 14.9251 3.78125C14.7488 3.78125 14.6059 3.9241 14.6059 4.1004V4.63231H14.074C13.8977 4.63231 13.7549 4.77516 13.7549 4.95146C13.7549 5.12776 13.8977 5.27061 14.074 5.27061Z" fill="black"/>
<path id="Vector_2" d="M11.2293 7.68274C11.3921 7.75036 11.5789 7.67291 11.6463 7.51002L12.1018 6.41044H13.3246L13.78 7.51002C13.8309 7.63295 13.9497 7.70712 14.075 7.70712C14.1157 7.70712 14.1571 7.69925 14.197 7.68274C14.3598 7.61529 14.4372 7.42861 14.3697 7.26576L13.8329 5.96985C13.8323 5.96823 13.8317 5.96665 13.831 5.96508L13.008 3.97827C12.9587 3.85899 12.8423 3.78125 12.7132 3.78125C12.5841 3.78125 12.4677 3.85899 12.4183 3.97827L11.5951 5.96572C11.5946 5.96678 11.5942 5.96785 11.5938 5.96895L11.0566 7.26576C10.9891 7.42861 11.0665 7.61529 11.2293 7.68274ZM12.7132 4.9344L13.0602 5.77219H12.3661L12.7132 4.9344Z" fill="black"/>
<path id="Vector_3" d="M4.99981 3.19299H7.87215C8.04845 3.19299 8.1913 3.05013 8.1913 2.87384C8.1913 2.69754 8.04845 2.55469 7.87215 2.55469H4.99981C4.82352 2.55469 4.68066 2.69754 4.68066 2.87384C4.68066 3.05013 4.82352 3.19299 4.99981 3.19299Z" fill="black"/>
<path id="Vector_4" d="M4.99981 5.10705H7.87215C8.04845 5.10705 8.1913 4.9642 8.1913 4.7879C8.1913 4.6116 8.04845 4.46875 7.87215 4.46875H4.99981C4.82352 4.46875 4.68066 4.6116 4.68066 4.7879C4.68066 4.9642 4.82352 5.10705 4.99981 5.10705Z" fill="black"/>
<path id="Vector_5" d="M4.99981 7.02111H7.87215C8.04845 7.02111 8.1913 6.87826 8.1913 6.70196C8.1913 6.52566 8.04845 6.38281 7.87215 6.38281H4.99981C4.82352 6.38281 4.68066 6.52566 4.68066 6.70196C4.68066 6.87826 4.82352 7.02111 4.99981 7.02111Z" fill="black"/>
<path id="Vector_6" d="M4.99981 8.93517H7.87215C8.04845 8.93517 8.1913 8.79232 8.1913 8.61602C8.1913 8.43973 8.04845 8.29688 7.87215 8.29688H4.99981C4.82352 8.29688 4.68066 8.43973 4.68066 8.61602C4.68066 8.79232 4.82352 8.93517 4.99981 8.93517Z" fill="black"/>
<path id="Vector_7" d="M19.9557 19.8424C19.9586 19.8375 19.9614 19.8326 19.964 19.8276C19.9664 19.8231 19.9685 19.8186 19.9706 19.814C19.9728 19.8091 19.975 19.8043 19.977 19.7994C19.9789 19.7945 19.9807 19.7895 19.9824 19.7845C19.984 19.7797 19.9857 19.7749 19.9871 19.77C19.9886 19.7647 19.9899 19.7594 19.9911 19.754C19.9923 19.7493 19.9934 19.7446 19.9943 19.7398C19.9953 19.734 19.9961 19.7283 19.9969 19.7225C19.9975 19.718 19.9981 19.7134 19.9985 19.7089C19.9991 19.7026 19.9993 19.6964 19.9994 19.6903C19.9995 19.6871 19.9999 19.684 19.9999 19.6809V7.53013C19.9999 7.52698 19.9995 7.52391 19.9994 7.52072C19.9993 7.51451 19.9991 7.50834 19.9985 7.50213C19.9981 7.49753 19.9975 7.49302 19.9969 7.48847C19.9961 7.48268 19.9953 7.47694 19.9943 7.47119C19.9934 7.46638 19.9923 7.46166 19.9911 7.45694C19.9899 7.45162 19.9886 7.4463 19.9871 7.44098C19.9857 7.43609 19.984 7.43128 19.9824 7.42647C19.9807 7.42149 19.9789 7.41655 19.977 7.41162C19.975 7.40664 19.9728 7.40183 19.9706 7.39694C19.9685 7.39238 19.9664 7.38787 19.964 7.38336C19.9614 7.37834 19.9586 7.37345 19.9557 7.36855C19.9533 7.36447 19.9509 7.36038 19.9483 7.35634C19.9451 7.35128 19.9415 7.34643 19.938 7.34157C19.936 7.33889 19.9344 7.33617 19.9323 7.33357C19.9315 7.33251 19.9306 7.33162 19.9297 7.33055C19.926 7.32604 19.9222 7.3217 19.9183 7.31736C19.915 7.3137 19.9118 7.30996 19.9084 7.30651C19.9049 7.30294 19.9012 7.29962 19.8975 7.29626C19.8934 7.29247 19.8894 7.2886 19.8852 7.28506C19.8819 7.2823 19.8784 7.27979 19.8749 7.27719C19.8701 7.27349 19.8654 7.2697 19.8604 7.26634C19.8568 7.26387 19.853 7.2617 19.8493 7.2594C19.8443 7.2563 19.8394 7.25311 19.8343 7.25034C19.8296 7.2477 19.8246 7.24549 19.8197 7.24311C19.8154 7.24106 19.8113 7.23885 19.807 7.23698C19.8011 7.23443 19.795 7.23234 19.789 7.23017C19.7854 7.22889 19.7819 7.2274 19.7783 7.22625C19.7722 7.22434 19.7659 7.22281 19.7597 7.22123C19.7558 7.22026 19.752 7.21911 19.7482 7.2183C19.7426 7.21711 19.737 7.2163 19.7314 7.2154C19.7265 7.2146 19.7217 7.21374 19.7168 7.21319C19.712 7.21264 19.7072 7.21243 19.7024 7.21213C19.6965 7.21174 19.6906 7.21132 19.6846 7.21123C19.6834 7.21123 19.6821 7.21106 19.6808 7.21106H17.4468V0.319149C17.4468 0.142851 17.304 0 17.1277 0H2.87234C2.69604 0 2.55319 0.142851 2.55319 0.319149V7.21098H0.319149C0.317915 7.21098 0.316766 7.21115 0.315532 7.21115C0.309319 7.21119 0.303106 7.21166 0.296894 7.21208C0.29234 7.21238 0.287787 7.2126 0.283277 7.21311C0.278085 7.2137 0.272936 7.21464 0.267787 7.21545C0.262468 7.21634 0.257149 7.21706 0.251915 7.21817C0.24766 7.21906 0.243489 7.22034 0.239234 7.22145C0.233404 7.22294 0.227532 7.22434 0.22183 7.22617C0.217745 7.22745 0.213787 7.22911 0.209787 7.2306C0.204213 7.23264 0.198553 7.23455 0.193106 7.23689C0.188298 7.23894 0.18366 7.2414 0.178936 7.2437C0.174511 7.24587 0.17 7.24787 0.165702 7.25021C0.160255 7.25319 0.154979 7.25664 0.14966 7.25996C0.146298 7.26208 0.142851 7.264 0.139574 7.26621C0.13434 7.26974 0.129404 7.2737 0.124383 7.27757C0.121191 7.28004 0.117872 7.28238 0.114809 7.28494C0.110468 7.28855 0.106383 7.29251 0.10217 7.29643C0.0985957 7.29974 0.0949362 7.30298 0.0915319 7.30647C0.0881277 7.30996 0.0848936 7.3137 0.081617 7.31736C0.0777447 7.3217 0.0738723 7.326 0.0702128 7.33051C0.0693617 7.33157 0.0684255 7.33247 0.0675745 7.33353C0.0655319 7.33613 0.0638723 7.33889 0.0619574 7.34153C0.058383 7.34638 0.0548511 7.35123 0.0515745 7.3563C0.0489362 7.3603 0.0465957 7.36438 0.0441702 7.36851C0.0413191 7.3734 0.0384681 7.37825 0.0358723 7.38332C0.0335319 7.38783 0.0314043 7.39234 0.0293191 7.39694C0.0271064 7.40174 0.0249362 7.4066 0.0229362 7.41153C0.0209787 7.41647 0.0191915 7.4214 0.0174894 7.42638C0.0158298 7.43119 0.0142128 7.436 0.0128085 7.44089C0.0112766 7.44621 0.00995745 7.45153 0.0087234 7.45685C0.00761702 7.46157 0.00651064 7.46634 0.00561702 7.47111C0.00455319 7.47685 0.00374468 7.48264 0.00297872 7.48838C0.00238298 7.49294 0.00174468 7.49745 0.0013617 7.50204C0.000808511 7.50826 0.000595745 7.51447 0.000425532 7.52064C0.000382979 7.52391 0 7.52698 0 7.53013V19.6809C0 19.684 0.000382979 19.6871 0.000468085 19.6903C0.000638298 19.6965 0.000851064 19.7026 0.00140426 19.7089C0.00178723 19.7134 0.00242553 19.718 0.00302128 19.7225C0.00378723 19.7283 0.00459574 19.734 0.00565957 19.7398C0.00655319 19.7446 0.00765957 19.7493 0.00876596 19.754C0.0100426 19.7594 0.0113191 19.7647 0.0128511 19.77C0.0142553 19.7749 0.0158723 19.7797 0.0175319 19.7845C0.019234 19.7894 0.0210213 19.7944 0.0229787 19.7994C0.0249362 19.8043 0.0271064 19.8091 0.0293191 19.8139C0.0314468 19.8185 0.0335319 19.823 0.0358723 19.8275C0.0385106 19.8326 0.0413191 19.8374 0.0441702 19.8423C0.0465957 19.8464 0.0489787 19.8505 0.0515745 19.8546C0.0548511 19.8596 0.058383 19.8645 0.0619574 19.8693C0.0638723 19.872 0.0655319 19.8747 0.0675745 19.8773C0.0683404 19.8783 0.0691915 19.8791 0.0699575 19.88C0.0759574 19.8875 0.0823404 19.8947 0.0890213 19.9017C0.0904255 19.9031 0.0917447 19.9048 0.0931915 19.9063C0.101021 19.9141 0.109277 19.9214 0.117915 19.9284C0.121362 19.9312 0.124979 19.9337 0.128553 19.9364C0.134085 19.9405 0.13966 19.9446 0.145447 19.9483C0.149404 19.9509 0.153404 19.9532 0.157404 19.9556C0.163277 19.9591 0.169277 19.9624 0.175362 19.9654C0.179234 19.9674 0.183149 19.9693 0.187064 19.9711C0.193787 19.9742 0.200681 19.9769 0.20766 19.9795C0.211149 19.9808 0.214638 19.9822 0.21817 19.9834C0.226 19.986 0.234 19.9882 0.242085 19.9902C0.244979 19.9909 0.24783 19.9917 0.250766 19.9924C0.259787 19.9943 0.269021 19.9958 0.27834 19.997C0.280468 19.9972 0.282511 19.9977 0.284638 19.998C0.296043 19.9993 0.307532 20 0.319149 20H19.6809C19.6925 20 19.704 19.9993 19.7153 19.9981C19.7174 19.9979 19.7194 19.9974 19.7214 19.9971C19.7308 19.996 19.7401 19.9945 19.7492 19.9925C19.752 19.9919 19.7548 19.991 19.7576 19.9903C19.7658 19.9883 19.7739 19.9861 19.7818 19.9834C19.7853 19.9823 19.7886 19.981 19.7921 19.9797C19.7991 19.9771 19.8061 19.9743 19.813 19.9711C19.8169 19.9694 19.8206 19.9675 19.8245 19.9656C19.8307 19.9625 19.8367 19.9591 19.8427 19.9556C19.8466 19.9533 19.8506 19.951 19.8545 19.9485C19.8603 19.9446 19.866 19.9406 19.8716 19.9363C19.8751 19.9337 19.8786 19.9313 19.882 19.9285C19.8906 19.9215 19.8989 19.9142 19.9068 19.9063C19.9082 19.9049 19.9095 19.9032 19.9109 19.9017C19.9176 19.8948 19.924 19.8876 19.93 19.88C19.9308 19.8791 19.9316 19.8783 19.9324 19.8774C19.9344 19.8748 19.9361 19.872 19.938 19.8694C19.9416 19.8645 19.9451 19.8597 19.9484 19.8546C19.951 19.8506 19.9534 19.8465 19.9557 19.8424ZM16.4929 16.7847C16.354 16.6762 16.1534 16.7007 16.0449 16.8397C15.9364 16.9786 15.961 17.1791 16.0999 17.2877L18.754 19.3617H1.24596L8.094 14.0105L9.80349 15.3463C9.86123 15.3914 9.9306 15.414 10 15.414C10.0694 15.414 10.1388 15.3914 10.1965 15.3463L11.906 14.0105L15.094 16.5017C15.1523 16.5472 15.2215 16.5693 15.2903 16.5693C15.3851 16.5693 15.479 16.5272 15.542 16.4467C15.6505 16.3078 15.6259 16.1072 15.487 15.9987L12.4243 13.6055L19.3617 8.18455V19.0264L16.4929 16.7847ZM0.638298 8.18455L7.57562 13.6054L0.638298 19.0264V8.18455ZM18.754 7.84928L17.4468 8.87077V7.84928H18.754ZM3.19149 0.638298H16.8085V9.36957L10 14.6898L3.19149 9.36957V0.638298ZM2.55319 8.87077L1.24596 7.84928H2.55319V8.87077Z" fill="black"/>
<path id="Vector_8" d="M9.99981 13.6971C10.1761 13.6971 10.319 13.5543 10.319 13.378V1.59649C10.319 1.42019 10.1761 1.27734 9.99981 1.27734C9.82352 1.27734 9.68066 1.42019 9.68066 1.59649V13.378C9.68066 13.5543 9.82352 13.6971 9.99981 13.6971Z" fill="black"/>
</g>
</svg>
