<svg xmlns="http://www.w3.org/2000/svg" width="20" height="18" viewBox="0 0 20 18" fill="none">
  <path d="M2.71983 17.4155C2.71983 17.4155 2.70206 17.8626 3.13878 17.8626C3.68208 17.8626 8.18023 17.8567 8.18023 17.8567L8.18763 13.7257C8.18763 13.7257 8.11657 13.0447 8.77756 13.0447H10.8693C11.651 13.0447 11.6029 13.7257 11.6029 13.7257L11.594 17.8434C11.594 17.8434 15.859 17.8434 16.5289 17.8434C17.0833 17.8434 17.0581 17.2867 17.0581 17.2867V9.6709L10.1032 3.48438L2.71983 9.6709V17.4155Z" fill="black"/>
  <path d="M0 9.09325C0 9.09325 0.626943 10.2487 1.99408 9.09325L10.1643 2.18134L17.8246 9.05032C19.4071 10.1917 20 9.05032 20 9.05032L10.1643 0.140625L0 9.09325Z" fill="black"/>
  <path d="M17.6384 2.16406H15.668L15.6761 4.5534L17.6384 6.2181V2.16406Z" fill="black"/>
</svg>