<svg width="18" height="20" viewBox="0 0 18 20" fill="none" xmlns="http://www.w3.org/2000/svg">
<g id="Group">
<path id="Vector" d="M17.49 8.4899C17.49 3.80879 13.6826 0 9.00064 0C8.21233 0 7.45349 0.116511 6.72908 0.318684L6.71201 0.307116C6.70815 0.3129 6.70512 0.319235 6.70099 0.32502C3.13541 1.33065 0.510742 4.60619 0.510742 8.48935C0.510742 10.2001 1.02361 11.7922 1.89703 13.1253H0.910131V20.0003H17.0917V13.1253H16.1054C16.9796 11.7933 17.49 10.2007 17.49 8.4899ZM16.6455 8.07922H13.5856C13.5556 7.16696 13.4526 6.27012 13.2691 5.39946H16.0103C16.3767 6.22523 16.5959 7.13005 16.6455 8.07922ZM15.5793 4.57369H13.0659C12.7587 3.44328 12.3277 2.36107 11.7647 1.3469C13.3669 1.97078 14.7064 3.11523 15.5793 4.57369ZM9.41325 0.845326C9.81264 0.866811 10.2054 0.910881 10.5877 0.992136C11.3 2.09665 11.8479 3.29978 12.2161 4.57424H9.41325V0.845326ZM9.41325 5.39946H12.4282C12.6232 6.26875 12.7312 7.16475 12.764 8.07922H9.4138V5.39946H9.41325ZM9.41325 8.90168H12.7706C12.7535 9.81394 12.659 10.711 12.4781 11.582H9.41325V8.90168ZM9.41325 12.4064H12.2795C12.2123 12.649 12.1357 12.8876 12.0564 13.1264H9.41298L9.41325 12.4064ZM7.23645 1.03648C7.67412 0.933743 8.12584 0.869565 8.58886 0.845051V4.57396H5.72263C6.06114 3.32236 6.56933 2.13273 7.23645 1.03648ZM5.23069 8.07922C5.24777 7.16751 5.34307 6.27012 5.52348 5.39946H8.58886V8.07922H5.23069ZM8.58886 8.90168V11.582H5.57334C5.37915 10.7124 5.27118 9.81559 5.23868 8.90168H8.58886ZM6.08042 1.4064C5.55736 2.40542 5.15522 3.46834 4.87427 4.57479H2.42175C3.26625 3.16288 4.54594 2.04019 6.08042 1.4064ZM1.99096 5.39946H4.68669C4.5162 6.27233 4.42282 7.16861 4.40547 8.07922H1.35497C1.4062 7.13005 1.62517 6.22523 1.99096 5.39946ZM1.35552 8.90168H4.41539C4.44568 9.81449 4.5487 10.711 4.73269 11.582H1.99151C1.62517 10.7554 1.4062 9.85223 1.35552 8.90168ZM4.93597 12.4064C5.00235 12.649 5.07617 12.8876 5.15412 13.1264H2.91754C2.74126 12.895 2.57269 12.657 2.4223 12.4064H4.93597ZM5.88624 18.4055V18.8062H2.71867V14.3196H3.18582H3.65544V18.0072H5.88624V18.4055ZM5.7857 12.4064H8.58831V13.1264H6.02203C5.93885 12.8876 5.85566 12.6504 5.7857 12.4064ZM7.20863 18.8062H6.74148H6.27185V14.3196H6.739H7.20863V18.8062ZM9.95091 18.8062H9.5058H9.06041L7.54081 14.3196H8.03825H8.53625L9.52205 17.7425L10.5045 14.3196H10.9857H11.4711L9.95091 18.8062ZM15.2826 18.4055V18.8062H11.8787V14.3196H15.1796V14.7154V15.1164H12.8147V16.0681H15.008V16.4526V16.8396H12.8147V18.008H15.284V18.4052L15.2826 18.4055ZM15.0848 13.1264H12.9229C12.9951 12.8876 13.065 12.649 13.127 12.4064H15.5793C15.4291 12.6579 15.2606 12.895 15.0848 13.1264ZM13.3143 11.5823C13.4845 10.7099 13.5776 9.81284 13.5953 8.90196H16.6455C16.5959 9.85168 16.3767 10.7548 16.0103 11.5823H13.3143Z" fill="black"/>
</g>
</svg>
