<svg width="20" height="20" viewBox="0 0 20 20" fill="none" xmlns="http://www.w3.org/2000/svg">
<g clip-path="url(#clip0_1865_133558)">
<mask id="mask0_1865_133558" style="mask-type:luminance" maskUnits="userSpaceOnUse" x="0" y="0" width="20" height="20">
<path d="M20 0H0V20H20V0Z" fill="white"/>
</mask>
<g mask="url(#mask0_1865_133558)">
<path d="M10 11.668C9.0111 11.668 8.0444 11.3747 7.22215 10.8253C6.39991 10.2759 5.75904 9.49502 5.3806 8.58139C5.00217 7.66776 4.90315 6.66242 5.09608 5.69252C5.289 4.72261 5.76521 3.8317 6.46447 3.13244C7.16373 2.43317 8.05465 1.95697 9.02455 1.76404C9.99446 1.57112 10.9998 1.67014 11.9134 2.04857C12.827 2.42701 13.6079 3.06787 14.1573 3.89012C14.7068 4.71237 15 5.67906 15 6.66797C15 7.99405 14.4732 9.26582 13.5355 10.2035C12.5979 11.1412 11.3261 11.668 10 11.668ZM10 3.33464C9.34073 3.33464 8.69627 3.53013 8.1481 3.89641C7.59994 4.26268 7.1727 4.78327 6.9204 5.39236C6.66811 6.00145 6.6021 6.67167 6.73072 7.31827C6.85934 7.96488 7.1768 8.55882 7.64298 9.02499C8.10915 9.49117 8.7031 9.80864 9.3497 9.93726C9.9963 10.0659 10.6665 9.99986 11.2756 9.74757C11.8847 9.49528 12.4053 9.06804 12.7716 8.51987C13.1378 7.97171 13.3333 7.32724 13.3333 6.66797C13.3333 5.78392 12.9821 4.93607 12.357 4.31095C11.7319 3.68583 10.8841 3.33464 10 3.33464Z" fill="black"/>
<path d="M17.5003 18.3333C17.2793 18.3333 17.0673 18.2455 16.9111 18.0893C16.7548 17.933 16.667 17.721 16.667 17.5C16.667 15.9529 16.0524 14.4692 14.9584 13.3752C13.8645 12.2812 12.3808 11.6667 10.8337 11.6667H9.16699C7.6199 11.6667 6.13616 12.2812 5.0422 13.3752C3.94824 14.4692 3.33366 15.9529 3.33366 17.5C3.33366 17.721 3.24586 17.933 3.08958 18.0893C2.9333 18.2455 2.72134 18.3333 2.50033 18.3333C2.27931 18.3333 2.06735 18.2455 1.91107 18.0893C1.75479 17.933 1.66699 17.721 1.66699 17.5C1.66699 15.5109 2.45717 13.6032 3.86369 12.1967C5.27021 10.7902 7.17787 10 9.16699 10H10.8337C12.8228 10 14.7304 10.7902 16.137 12.1967C17.5435 13.6032 18.3337 15.5109 18.3337 17.5C18.3337 17.721 18.2459 17.933 18.0896 18.0893C17.9333 18.2455 17.7213 18.3333 17.5003 18.3333Z" fill="black"/>
<path d="M10.0002 18.3328C9.8905 18.3334 9.78178 18.3124 9.68025 18.271C9.57872 18.2295 9.48637 18.1684 9.40851 18.0911L8.57517 17.2578C8.48394 17.166 8.41535 17.0542 8.37485 16.9312C8.33434 16.8083 8.32304 16.6776 8.34184 16.5495L9.17517 10.7161C9.17517 10.4951 9.26297 10.2832 9.41925 10.1269C9.57553 9.97061 9.78749 9.88281 10.0085 9.88281C10.2295 9.88281 10.4415 9.97061 10.5978 10.1269C10.754 10.2832 10.8418 10.4951 10.8418 10.7161L11.6752 16.5495C11.694 16.6776 11.6827 16.8083 11.6422 16.9312C11.6017 17.0542 11.5331 17.166 11.4418 17.2578L10.6085 18.0911C10.5287 18.1704 10.4336 18.2327 10.3291 18.2742C10.2245 18.3157 10.1126 18.3357 10.0002 18.3328Z" fill="black"/>
</g>
</g>
<defs>
<clipPath id="clip0_1865_133558">
<rect width="20" height="20" fill="white"/>
</clipPath>
</defs>
</svg>
