<svg xmlns="http://www.w3.org/2000/svg" width="20" height="20" viewBox="0 0 20 20" fill="none">
  <g clip-path="url(#clip0_1865_133513)">
    <path d="M9.75 1.66797C9.66667 1.66797 9.66667 1.66797 9.58333 1.66797C9.58333 1.66797 9.58333 1.66797 9.5 1.66797C9.33333 1.66797 9.25 1.66797 9.08333 1.66797L9.25 3.33464C9.58333 3.33464 10 3.33464 10.3333 3.33464C13.6667 3.58464 16.4167 6.2513 16.5833 9.66797C16.75 13.3346 13.9167 16.5013 10.25 16.668C10.25 16.668 10.1667 16.668 10.0833 16.668C9.83333 16.668 9.5 16.668 9.25 16.668L9.16667 18.3346C9.5 18.3346 9.83333 18.3346 10.25 18.3346C10.3333 18.3346 10.5 18.3346 10.5833 18.3346C15.0833 18.0013 18.5 14.168 18.3333 9.66797C18.1667 5.41797 14.75 2.08464 10.5833 1.7513C10.4167 1.7513 10.3333 1.7513 10.1667 1.7513C10 1.66797 9.91667 1.66797 9.75 1.66797ZM6.83333 2.2513C6.41667 2.5013 6 2.66797 5.58333 2.91797L6.5 4.33464C6.75 4.16797 7.08333 4.0013 7.41667 3.83464L6.83333 2.2513ZM3.75 4.5013C3.41667 4.83464 3.16667 5.2513 2.91667 5.58464L4.33333 6.41797C4.5 6.16797 4.75 5.91797 5 5.58464L3.75 4.5013ZM12.8333 7.0013L9 11.3346L6.75 9.58464L5.83333 11.0013L9.33333 13.668L14.1667 8.16797L12.8333 7.0013ZM2 7.5013C1.83333 7.91797 1.75 8.41797 1.75 8.83464L3.41667 9.08463C3.5 8.7513 3.5 8.33464 3.66667 8.0013L2 7.5013ZM3.41667 10.8346L1.75 11.0013C1.75 11.0846 1.75 11.168 1.75 11.2513C1.83333 11.5846 1.91667 12.0013 2 12.3346L3.58333 11.8346C3.5 11.5846 3.41667 11.2513 3.41667 10.918V10.8346ZM4.33333 13.5013L2.91667 14.418C3.16667 14.8346 3.41667 15.168 3.75 15.5013L5 14.418C4.75 14.0846 4.5 13.8346 4.33333 13.5013ZM6.5 15.668L5.58333 17.0846C6 17.3346 6.41667 17.5013 6.83333 17.7513L7.5 16.2513C7.08333 16.0013 6.75 15.8346 6.5 15.668Z" fill="black"/>
  </g>
  <defs>
    <clipPath id="clip0_1865_133513">
      <rect width="20" height="20" fill="white"/>
    </clipPath>
  </defs>
</svg>